<?xml version="1.0" encoding="utf-8"?>
<!-- Generator: Adobe Illustrator 26.5.0, SVG Export Plug-In . SVG Version: 6.00 Build 0)  -->
<svg version="1.1" id="Message_And_Communication_Icons"
	 xmlns="http://www.w3.org/2000/svg" xmlns:xlink="http://www.w3.org/1999/xlink" x="0px" y="0px" viewBox="0 0 50 50"
	 style="enable-background:new 0 0 50 50;" xml:space="preserve">
<style type="text/css">
	.st0{fill:#F9644D;}
	.st1{fill:#F75A1A;}
</style>
<g>
	<g>
		<g>
			<g>
				<rect x="1.6" y="14.8" class="st0" width="39.7" height="18.4"/>
			</g>
		</g>
		<g>
			<g>
				<rect x="20.5" y="34.2" class="st1" width="1.9" height="1.2"/>
			</g>
		</g>
		<g>
			<g>
				<polygon class="st0" points="25.5,42.8 25.5,38.1 22.5,38.1 22.5,42.8 20.4,42.8 20.4,44 22.5,44 25.5,44 30.9,44 30.9,42.8 
									"/>
			</g>
		</g>
		<g>
			<g>
				<g>
					<path class="st1" d="M41.9,37.7H1V12.5h40.9V37.7z M2.2,36.5h38.5V13.7H2.2V36.5z"/>
				</g>
			</g>
			<g>
				<g>
					<rect x="17.9" y="37.1" class="st1" width="1.2" height="5.9"/>
				</g>
			</g>
			<g>
				<g>
					<rect x="23.8" y="37.1" class="st1" width="1.2" height="5.9"/>
				</g>
			</g>
			<g>
				<g>
					<rect x="12.4" y="42.4" class="st1" width="18.1" height="1.2"/>
				</g>
			</g>
		</g>
		<g>
			<g>
				<rect x="20.9" y="14.3" class="st1" width="1.2" height="1.2"/>
			</g>
		</g>
	</g>
	<g>
		<g>
			<g>
				<path class="st1" d="M44.3,13.1h-1.2c0-1-0.8-1.8-1.8-1.8v-1.2C42.9,10.1,44.3,11.5,44.3,13.1z"/>
			</g>
		</g>
		<g>
			<g>
				<path class="st1" d="M46.7,13.1h-1.2c0-2.3-1.9-4.2-4.2-4.2V7.7C44.3,7.7,46.7,10.1,46.7,13.1z"/>
			</g>
		</g>
		<g>
			<g>
				<path class="st1" d="M49,13.1h-1.2c0-3.6-2.9-6.5-6.5-6.5V5.4C45.5,5.4,49,8.9,49,13.1z"/>
			</g>
		</g>
	</g>
</g>
</svg>
