<?xml version="1.0" encoding="utf-8"?>
<!-- Generator: Adobe Illustrator 26.5.0, SVG Export Plug-In . SVG Version: 6.00 Build 0)  -->
<svg version="1.1" id="Layer_1" xmlns="http://www.w3.org/2000/svg" xmlns:xlink="http://www.w3.org/1999/xlink" x="0px" y="0px"
	 viewBox="0 0 50 50" style="enable-background:new 0 0 50 50;" xml:space="preserve">
<style type="text/css">
	.st0{fill:#F9A464;}
	.st1{fill:#F2BA88;}
	.st2{enable-background:new    ;}
	.st3{fill:#F76C00;}
	.st4{fill:#F75A1A;}
	.st5{fill:#CD5A00;}
</style>
<g>
	<g>
		<g>
			<path class="st0" d="M41.4,28.7c-0.6-2-0.4-4.9-1.6-9.5c-0.9-3-3.8-3.5-3.8-3.5c2.5,1.9,0.4,3.6,0.4,3.6
				c-1.7,0.7-1.8-0.1-2.1-6.6C34,6.3,30,7.9,30,7.9c2,1.4,0.4,3.9,0.4,3.9c-1.6,2.2-1.4,3.5-1.4,3.5c-4-3.2-1.2-6.6-1.2-6.6
				c-3.9,0.8-2.6,6.5-2.6,6.5c-3.4-1.7-2.3-4.2-2.9-8c-0.6-3.8-2.8-3.1-2.8-3.1c1.6,2.2-0.9,3-0.9,3c-0.3-0.9-0.7-1.8-1.8-2.9
				C15.7,3.2,15.8,1,15.8,1c-0.8,0.9-1.5,3.2-0.7,4.2c0.7,1,0.9,2.9,0.9,2.9c0,3.4-2.6,2.3-2.6,2.3c-2.5-2.3-1.1-5.4-1.1-5.4
				c-2.9,1.4-1.9,6.1-1.9,6.1c-2,1.8-1.6,3.3-1.4,3.8L39,32.3C41.7,32.4,41.4,28.7,41.4,28.7z"/>
			<g>
				<g>
					<polygon class="st1" points="38.2,30.5 38.2,49 8.6,31.9 8.6,13.4 					"/>
					<g class="st2">
						<g>
							<polygon class="st3" points="10.9,30.8 10.9,33.2 8.6,31.9 8.6,29.5 							"/>
						</g>
						<g>
							<polygon class="st3" points="10.9,24.4 10.9,26.8 8.6,25.5 8.6,23 							"/>
						</g>
						<g>
							<polygon class="st3" points="13.9,29.3 13.9,31.8 8.6,28.7 8.6,26.3 							"/>
						</g>
						<g>
							<polygon class="st3" points="17,34.3 17,36.7 11.5,33.6 11.5,31.2 							"/>
						</g>
						<g>
							<polygon class="st3" points="10.9,18 10.9,20.4 8.6,19.1 8.6,16.6 							"/>
						</g>
						<g>
							<polygon class="st3" points="13.9,22.9 13.9,25.4 8.6,22.3 8.6,19.8 							"/>
						</g>
						<g>
							<polygon class="st3" points="11.5,27.2 11.5,24.8 17,27.9 17,30.3 							"/>
						</g>
						<g>
							<polygon class="st3" points="20,32.9 20,35.3 14.6,32.2 14.6,29.7 							"/>
						</g>
						<g>
							<polygon class="st3" points="23.1,37.8 23.1,40.3 17.6,37.1 17.6,34.7 							"/>
						</g>
						<polygon class="st1" points="11.8,11.6 41.4,28.7 38.2,30.5 8.6,13.4 						"/>
						<g>
							<polygon class="st4" points="8.6,13.4 11.8,11.6 17.1,14.7 14,16.5 							"/>
						</g>
						<g>
							<polygon class="st3" points="14,16.5 13.9,19 8.6,15.9 8.6,13.4 							"/>
						</g>
						<g>
							<polygon class="st3" points="17,21.5 17,23.9 11.6,20.8 11.6,18.4 							"/>
						</g>
						<g>
							<polygon class="st3" points="14.6,25.8 14.6,23.3 20,26.5 20,28.9 							"/>
						</g>
						<g>
							<polygon class="st3" points="23.1,25 23.1,27.4 17.7,24.3 17.7,21.9 							"/>
						</g>
						<g>
							<polygon class="st3" points="26.1,30 26.1,32.4 20.7,29.3 20.7,26.8 							"/>
						</g>
						<g>
							<polygon class="st3" points="32.2,42.3 26.8,39.2 26.8,36.8 32.2,39.9 							"/>
						</g>
						<g>
							<polygon class="st3" points="29.2,28.5 29.2,31 23.8,27.8 23.8,25.4 							"/>
						</g>
						<g>
							<polygon class="st3" points="26.8,32.8 26.8,30.4 32.2,33.5 32.2,35.9 							"/>
						</g>
						<g>
							<polygon class="st3" points="35.3,38.5 35.3,40.9 29.8,37.8 29.9,35.3 							"/>
						</g>
						<g>
							<polygon class="st3" points="35.3,32.1 35.3,34.5 29.9,31.4 29.9,28.9 							"/>
						</g>
						<g>
							<polygon class="st3" points="17.6,28.3 23.1,31.4 23.1,33.8 17.6,30.7 							"/>
						</g>
						<g>
							<polygon class="st3" points="26.1,38.8 20.7,35.7 20.7,33.3 26.1,36.4 							"/>
						</g>
						<g>
							<polygon class="st3" points="29.2,41.3 29.2,43.8 23.7,40.6 23.7,38.2 							"/>
						</g>
						<g>
							<polygon class="st3" points="20.1,20 20,22.5 14.6,19.3 14.6,16.9 							"/>
						</g>
						<g>
							<polygon class="st4" points="14.6,16.9 17.8,15.1 23.2,18.2 20.1,20 							"/>
						</g>
						<g>
							<polygon class="st3" points="29.2,34.9 29.2,37.4 23.7,34.2 23.7,31.8 							"/>
						</g>
						<g>
							<polygon class="st3" points="35.3,44.9 35.3,47.3 29.8,44.2 29.8,41.7 							"/>
						</g>
						<g>
							<polygon class="st3" points="38.2,46.6 38.2,49 35.9,47.7 35.9,45.3 							"/>
						</g>
						<g>
							<polygon class="st3" points="26.2,23.6 26.2,26 20.7,22.9 20.7,20.4 							"/>
						</g>
						<g>
							<polygon class="st4" points="20.7,20.4 23.9,18.6 29.4,21.7 26.2,23.6 							"/>
						</g>
						<g>
							<polygon class="st3" points="38.2,43.4 38.2,45.8 32.9,42.7 32.9,40.3 							"/>
						</g>
						<g>
							<polygon class="st3" points="38.2,40.2 38.2,42.6 35.9,41.3 36,38.8 							"/>
						</g>
						<g>
							<polygon class="st4" points="26.8,24 30,22.1 35.5,25.2 32.3,27.1 							"/>
						</g>
						<g>
							<polygon class="st3" points="32.3,27.1 32.3,29.5 26.8,26.4 26.8,24 							"/>
						</g>
						<g>
							<polygon class="st3" points="38.2,37 38.2,39.4 32.9,36.3 32.9,33.9 							"/>
						</g>
						<g>
							<polygon class="st3" points="38.2,33.8 38.2,36.2 36,34.9 36,32.4 							"/>
						</g>
						<g>
							<polygon class="st4" points="32.9,27.5 36.1,25.6 41.4,28.7 38.2,30.5 							"/>
						</g>
						<g>
							<polygon class="st3" points="38.2,30.5 38.2,33 32.9,29.9 32.9,27.5 							"/>
						</g>
						<polygon class="st1" points="41.4,28.7 41.4,47.1 38.2,49 38.2,30.5 						"/>
					</g>
				</g>
				<g>
					<g>
						<polygon class="st5" points="38.2,46.6 41.4,44.7 41.4,47.1 38.2,49 						"/>
					</g>
					<g>
						<polygon class="st5" points="38.2,43.4 41.4,41.5 41.4,43.9 38.2,45.8 						"/>
					</g>
					<g>
						<polygon class="st5" points="38.2,40.2 41.4,38.3 41.4,40.7 38.2,42.6 						"/>
					</g>
					<g>
						<polygon class="st5" points="38.2,37 41.4,35.1 41.4,37.5 38.2,39.4 						"/>
					</g>
					<g>
						<polygon class="st5" points="38.2,33.8 41.4,31.9 41.4,34.3 38.2,36.2 						"/>
					</g>
					<g>
						<polygon class="st5" points="38.2,30.5 41.4,28.7 41.4,31.1 38.2,33 						"/>
					</g>
				</g>
			</g>
			<path class="st0" d="M38.2,30.5l3.2-1.9c0,0-1.9-9.8-4.5-11.9c0,0,0.1,3.4-1,5.3S38.2,30.5,38.2,30.5z"/>
			<path class="st1" d="M8.6,13.5c-0.1-0.4-0.1-1.3,1.1-2.3c0.3-0.3,0.4-0.7,0.4-1.1c0,0-0.4-0.8,0.1-1.8c0.3,0.6,0.5,1.5,1.1,2.1
				c0.1,0.1,0.2,0.2,0.3,0.2c0.1,0,0.6,0.2,1.3,0.2c0.7,0,2.9-0.3,2.9-3.6c0,0,0-0.1,0-0.1C15.8,7.1,15.4,6,15,5
				c0.5,0.7,1.1,1.3,1.2,1.8c0.2,0.5,0.6,0.8,1.1,0.8c0.1,0,0.2,0,0.3-0.1c0.2-0.1,1.9-0.7,2.4-2c0.1,0.3,0.2,0.6,0.2,1
				c0.2,1-0.2,2-0.1,2.9c0.1,2.3,0.2,4.6,3.2,6.1c0.2,0.1,0.3,0.1,0.5,0.1c0.2,0,0.5-0.1,0.7-0.2c0.3-0.3,0.5-0.7,0.4-1.1
				c-0.1-0.3,0.1-1.3,0.1-2.1c0.4,0.9,0.8,2.3,2,3.2c0.2,0.2,0.5,0.3,0.7,0.3c0.2,0,0.4-0.1,0.6-0.2c0.4-0.3,0.6-0.7,0.5-1.1
				c0-0.2,0-1.1,1.2-2.7c0,0,0-0.1,0.1-0.1c0.4-0.7,0.9-2,0.7-3.2c0.1,0,0.1,0.1,0.2,0.2c0.4,0.4,0.9,1.4,1,3.4
				c0.1,2.8,0.2,4.4,0.4,5.5c0.1,0.6,0.4,2.3,2,2.3c0,0,0,0,0,0c0.3,0,0.7-0.1,1.2-0.3c0.1,0,0.2-0.1,0.3-0.2
				c0.1-0.1,1.2-1.2,1.2-2.6c0.1,0.2,0.1,0.5,0.2,0.7c0.9,2.4,0.5,3.6,0.2,4.9c-0.3,0.9-0.5,1.8-0.2,2.9l0.1,0.2
				c0.2,0.8,0.6,1.9,0.8,2.9c0.3,1.5,0.3,2.1,0.3,2.1C38.2,30.6,8.6,13.5,8.6,13.5z"/>
		</g>
	</g>
</g>
</svg>
