<?xml version="1.0" encoding="utf-8"?>
<!-- Generator: Adobe Illustrator 26.5.0, SVG Export Plug-In . SVG Version: 6.00 Build 0)  -->
<svg version="1.1" id="Layer_1" xmlns="http://www.w3.org/2000/svg" xmlns:xlink="http://www.w3.org/1999/xlink" x="0px" y="0px"
	 viewBox="0 0 50 50" style="enable-background:new 0 0 50 50;" xml:space="preserve">
<style type="text/css">
	.st0{fill:#FABC72;}
	.st1{fill:#FF9F3F;}
	.st2{fill:#FFA54C;}
	.st3{fill:#532500;}
	.st4{fill:#893E00;}
	.st5{fill:#7B3800;}
	.st6{fill:#FF8200;}
	.st7{fill:#FF5C00;}
	.st8{fill:#FFFFFF;}
	.st9{enable-background:new    ;}
	.st10{fill:#D56D00;}
</style>
<g>
	<g>
		<g>
			<g>
				<polygon class="st0" points="7.5,37.6 24.7,27.5 42.6,37.9 25.3,47.9 				"/>
			</g>
			<g>
				<g>
					<polygon class="st1" points="25.3,47.9 42.6,37.9 42.5,39 25.3,49 					"/>
				</g>
				<g>
					<polygon class="st2" points="25.3,47.9 25.3,49 7.4,38.7 7.5,37.6 					"/>
				</g>
			</g>
		</g>
		<g>
			<g>
				<g>
					<g>
						<g>
							<polygon class="st3" points="24.7,16.7 38.7,9 38.6,38.3 25.2,46.1 							"/>
						</g>
						<g>
							<g>
								<g>
									<polygon class="st4" points="32.9,39.1 32.9,39.7 37.3,37.2 37.3,36.5 									"/>
								</g>
								<g>
									<polygon class="st4" points="32.9,34.7 32.9,35.3 37.3,32.8 37.3,32.1 									"/>
								</g>
								<g>
									<polygon class="st4" points="32.9,35.8 32.9,36.4 37.3,33.9 37.3,33.2 									"/>
								</g>
								<g>
									<polygon class="st4" points="32.9,36.9 32.9,37.5 37.3,35 37.3,34.3 									"/>
								</g>
								<g>
									<polygon class="st4" points="32.9,38 32.9,38.6 37.3,36.1 37.3,35.4 									"/>
								</g>
							</g>
							<g>
								<g>
									<polygon class="st4" points="32.9,19.7 32.9,20.3 37.3,17.8 37.3,17.1 									"/>
								</g>
								<g>
									<polygon class="st4" points="32.9,15.3 32.9,15.9 37.3,13.4 37.3,12.7 									"/>
								</g>
								<g>
									<polygon class="st4" points="32.9,16.4 32.9,17 37.3,14.5 37.3,13.8 									"/>
								</g>
								<g>
									<polygon class="st4" points="32.9,17.5 32.9,18.1 37.3,15.6 37.3,14.9 									"/>
								</g>
								<g>
									<polygon class="st4" points="32.9,18.6 32.9,19.2 37.3,16.7 37.3,16 									"/>
								</g>
							</g>
						</g>
						<g>
							<polygon class="st5" points="25.3,16.7 25.2,46.1 11.3,38.1 11.4,8.8 							"/>
						</g>
					</g>
					<g>
						<g>
							<g>
								<polygon class="st6" points="24.1,17.8 24.7,17.4 24.7,20.6 24.1,20.9 								"/>
							</g>
							<g>
								<polygon class="st2" points="11.9,10.7 12.5,10.4 24.7,17.4 24.1,17.8 								"/>
							</g>
							<g>
								<polygon class="st2" points="24.1,17.8 24.1,20.9 11.9,13.8 11.9,10.7 								"/>
								<polygon class="st7" points="24.1,17.8 24.1,20.9 11.9,13.8 11.9,10.7 								"/>
							</g>
						</g>
						<g>
							<g>
								<polygon class="st4" points="13.6,12.5 13.6,12.9 12.7,12.4 12.7,12 								"/>
							</g>
							<g>
								<polygon class="st4" points="14.8,13.2 14.8,13.7 13.9,13.2 13.9,12.7 								"/>
							</g>
							<g>
								<polygon class="st4" points="23,18 23,18.4 22.1,17.9 22.1,17.5 								"/>
							</g>
							<g>
								
									<ellipse transform="matrix(0.8646 -0.5025 0.5025 0.8646 -6.542 14.0713)" class="st8" cx="22.8" cy="19.2" rx="0.1" ry="0.2"/>
							</g>
							<g>
								<path class="st8" d="M22.3,18.7c0.1,0.1,0.2,0.2,0.2,0.3s-0.1,0.1-0.2,0.1c-0.1-0.1-0.2-0.2-0.2-0.3
									C22.1,18.7,22.2,18.6,22.3,18.7z"/>
							</g>
							<g>
								
									<ellipse transform="matrix(0.8646 -0.5025 0.5025 0.8646 -6.372 13.4332)" class="st8" cx="21.7" cy="18.5" rx="0.1" ry="0.2"/>
							</g>
							<g>
								
									<ellipse transform="matrix(0.8646 -0.5025 0.5025 0.8646 -6.2869 13.1137)" class="st8" cx="21.2" cy="18.2" rx="0.1" ry="0.2"/>
							</g>
						</g>
						<path class="st6" d="M12.3,11.4L12.3,11.4l-0.1,2.2l0,0l11.5,6.6l0.1,0l0-2.3l0,0L12.3,11.4z M23.7,20.1l-11.3-6.5l0-2.1
							L23.7,18L23.7,20.1z"/>
					</g>
					<g>
						<g>
							<g>
								<polygon class="st6" points="24.1,22.5 24.7,22.1 24.7,25.2 24.1,25.6 								"/>
							</g>
							<g>
								<polygon class="st2" points="11.9,15.4 12.5,15.1 24.7,22.1 24.1,22.5 								"/>
							</g>
							<g>
								<polygon class="st2" points="24.1,22.5 24.1,25.6 11.9,18.5 11.9,15.4 								"/>
								<polygon class="st7" points="24.1,22.5 24.1,25.6 11.9,18.5 11.9,15.4 								"/>
							</g>
						</g>
						<g>
							<g>
								<polygon class="st4" points="13.6,17.2 13.6,17.6 12.7,17.1 12.7,16.7 								"/>
							</g>
							<g>
								<polygon class="st4" points="14.8,17.9 14.8,18.3 13.9,17.8 13.9,17.4 								"/>
							</g>
							<g>
								<polygon class="st4" points="23,22.7 23,23.1 22.1,22.6 22.1,22.2 								"/>
							</g>
							<g>
								
									<ellipse transform="matrix(0.8646 -0.5025 0.5025 0.8646 -8.8941 14.7051)" class="st8" cx="22.8" cy="23.9" rx="0.1" ry="0.2"/>
							</g>
							<g>
								<path class="st8" d="M22.3,23.4c0.1,0.1,0.2,0.2,0.2,0.3s-0.1,0.1-0.2,0.1c-0.1-0.1-0.2-0.2-0.2-0.3
									C22.1,23.3,22.2,23.3,22.3,23.4z"/>
							</g>
							<g>
								
									<ellipse transform="matrix(0.8646 -0.5025 0.5025 0.8646 -8.7241 14.067)" class="st8" cx="21.7" cy="23.2" rx="0.1" ry="0.2"/>
							</g>
							<g>
								
									<ellipse transform="matrix(0.8646 -0.5025 0.5025 0.8646 -8.639 13.7475)" class="st8" cx="21.2" cy="22.9" rx="0.1" ry="0.2"/>
							</g>
						</g>
						<path class="st6" d="M12.3,16L12.3,16l-0.1,2.2l0,0l11.5,6.6l0.1,0l0-2.3l0,0L12.3,16z M23.7,24.8l-11.3-6.5l0-2.1l11.3,6.5
							L23.7,24.8z"/>
					</g>
					<g>
						<g>
							<g>
								<polygon class="st6" points="24.1,27.1 24.7,26.8 24.7,29.9 24.1,30.2 								"/>
							</g>
							<g>
								<polygon class="st2" points="11.9,20.1 12.5,19.7 24.7,26.8 24.1,27.1 								"/>
							</g>
							<g>
								<polygon class="st2" points="24.1,27.1 24.1,30.2 11.9,23.2 11.9,20.1 								"/>
								<polygon class="st7" points="24.1,27.1 24.1,30.2 11.9,23.2 11.9,20.1 								"/>
							</g>
						</g>
						<g>
							<g>
								<polygon class="st4" points="13.6,21.9 13.6,22.3 12.7,21.8 12.7,21.4 								"/>
							</g>
							<g>
								<polygon class="st4" points="14.8,22.6 14.8,23 13.9,22.5 13.9,22.1 								"/>
							</g>
							<g>
								<polygon class="st4" points="23,27.3 23,27.8 22.1,27.3 22.1,26.8 								"/>
							</g>
							<g>
								
									<ellipse transform="matrix(0.8646 -0.5025 0.5025 0.8646 -11.2462 15.3389)" class="st8" cx="22.8" cy="28.5" rx="0.1" ry="0.2"/>
							</g>
							<g>
								<path class="st8" d="M22.3,28c0.1,0.1,0.2,0.2,0.2,0.3s-0.1,0.1-0.2,0.1c-0.1-0.1-0.2-0.2-0.2-0.3C22.1,28,22.2,28,22.3,28z
									"/>
							</g>
							<g>
								
									<ellipse transform="matrix(0.8646 -0.5025 0.5025 0.8646 -11.0762 14.7008)" class="st8" cx="21.7" cy="27.9" rx="0.1" ry="0.2"/>
							</g>
							<g>
								
									<ellipse transform="matrix(0.8646 -0.5025 0.5025 0.8646 -10.991 14.3813)" class="st8" cx="21.2" cy="27.6" rx="0.1" ry="0.2"/>
							</g>
						</g>
						<path class="st6" d="M12.3,20.7L12.3,20.7L12.2,23l0,0l11.5,6.6l0.1,0l0-2.3l0,0L12.3,20.7z M23.7,29.5l-11.3-6.5l0-2.1
							l11.3,6.5L23.7,29.5z"/>
					</g>
					<g>
						<g>
							<g>
								<polygon class="st6" points="24.1,31.8 24.7,31.5 24.7,34.6 24.1,34.9 								"/>
							</g>
							<g>
								<polygon class="st2" points="11.9,24.8 12.5,24.4 24.7,31.5 24.1,31.8 								"/>
							</g>
							<g>
								<polygon class="st2" points="24.1,31.8 24.1,34.9 11.9,27.9 11.9,24.8 								"/>
								<polygon class="st7" points="24.1,31.8 24.1,34.9 11.9,27.9 11.9,24.8 								"/>
							</g>
						</g>
						<g>
							<g>
								<polygon class="st4" points="13.6,26.6 13.6,27 12.7,26.5 12.7,26.1 								"/>
							</g>
							<g>
								<polygon class="st4" points="14.8,27.3 14.8,27.7 13.9,27.2 13.9,26.8 								"/>
							</g>
							<g>
								<polygon class="st4" points="23,32 23,32.4 22.1,31.9 22.1,31.5 								"/>
							</g>
							<g>
								
									<ellipse transform="matrix(0.8646 -0.5025 0.5025 0.8646 -13.5982 15.9727)" class="st8" cx="22.8" cy="33.2" rx="0.1" ry="0.2"/>
							</g>
							<g>
								<path class="st8" d="M22.3,32.7c0.1,0.1,0.2,0.2,0.2,0.3c0,0.1-0.1,0.1-0.2,0.1c-0.1-0.1-0.2-0.2-0.2-0.3
									C22.1,32.7,22.2,32.7,22.3,32.7z"/>
							</g>
							<g>
								
									<ellipse transform="matrix(0.8646 -0.5025 0.5025 0.8646 -13.4282 15.3346)" class="st8" cx="21.7" cy="32.6" rx="0.1" ry="0.2"/>
							</g>
							<g>
								
									<ellipse transform="matrix(0.8646 -0.5025 0.5025 0.8646 -13.3431 15.0151)" class="st8" cx="21.2" cy="32.3" rx="0.1" ry="0.2"/>
							</g>
						</g>
						<path class="st6" d="M12.3,25.4L12.3,25.4l-0.1,2.2l0,0l11.5,6.6l0.1,0l0-2.3l0,0L12.3,25.4z M23.7,34.2l-11.3-6.5l0-2.1
							l11.3,6.5L23.7,34.2z"/>
					</g>
					<g>
						<g>
							<g>
								<polygon class="st6" points="24.1,36.5 24.7,36.2 24.7,39.3 24.1,39.6 								"/>
							</g>
							<g>
								<polygon class="st2" points="11.9,29.4 12.5,29.1 24.7,36.2 24.1,36.5 								"/>
							</g>
							<g>
								<polygon class="st2" points="24.1,36.5 24.1,39.6 11.9,32.6 11.9,29.4 								"/>
								<polygon class="st7" points="24.1,36.5 24.1,39.6 11.9,32.6 11.9,29.4 								"/>
							</g>
						</g>
						<g>
							<g>
								<polygon class="st4" points="13.6,31.2 13.6,31.7 12.7,31.2 12.7,30.7 								"/>
							</g>
							<g>
								<polygon class="st4" points="14.8,32 14.8,32.4 13.9,31.9 13.9,31.5 								"/>
							</g>
							<g>
								<polygon class="st4" points="23,36.7 23,37.1 22.1,36.6 22.1,36.2 								"/>
							</g>
							<g>
								
									<ellipse transform="matrix(0.8646 -0.5025 0.5025 0.8646 -15.9503 16.6065)" class="st8" cx="22.8" cy="37.9" rx="0.1" ry="0.2"/>
							</g>
							<g>
								<path class="st8" d="M22.3,37.4c0.1,0.1,0.2,0.2,0.2,0.3c0,0.1-0.1,0.1-0.2,0.1c-0.1-0.1-0.2-0.2-0.2-0.3
									C22.1,37.4,22.2,37.3,22.3,37.4z"/>
							</g>
							<g>
								
									<ellipse transform="matrix(0.8646 -0.5025 0.5025 0.8646 -15.7803 15.9684)" class="st8" cx="21.7" cy="37.3" rx="0.1" ry="0.2"/>
							</g>
							<g>
								
									<ellipse transform="matrix(0.8646 -0.5025 0.5025 0.8646 -15.6951 15.6489)" class="st8" cx="21.2" cy="36.9" rx="0.1" ry="0.2"/>
							</g>
						</g>
						<path class="st6" d="M12.3,30.1L12.3,30.1l-0.1,2.2l0,0L23.7,39l0.1,0l0-2.3l0,0L12.3,30.1z M23.7,38.8l-11.3-6.5l0-2.1
							l11.3,6.5L23.7,38.8z"/>
					</g>
					<g>
						<g>
							<polygon class="st3" points="23.4,40.1 23.4,42 23.4,43.8 22.6,43.3 22.6,41.6 22.6,39.6 							"/>
							<polygon class="st3" points="14.3,34.8 15.1,35.3 15.1,37.2 15.1,39 14.3,38.6 14.3,36.8 							"/>
							<polygon class="st3" points="16.3,36 16.8,36.3 16.7,38.2 16.7,40 16.3,39.7 15.9,39.5 16,37.7 16,35.8 							"/>
							<polygon class="st3" points="19.3,37.7 20.1,38.2 20.1,40.1 20.1,41.9 19.3,41.4 19.3,39.6 							"/>
							<polygon class="st3" points="21.3,38.9 21.7,39.1 21.7,41.1 21.7,42.9 21.3,42.6 20.9,42.4 20.9,40.6 20.9,38.7 							"/>
							<polygon class="st3" points="17.6,36.7 18.4,37.2 18.4,39.1 18.4,40.9 17.6,40.5 17.6,38.7 							"/>
							<polygon class="st3" points="12.6,33.9 13.4,34.3 13.4,36.3 13.4,38.1 12.6,37.6 12.6,35.8 							"/>
						</g>
					</g>
				</g>
			</g>
			<g>
				<g>
					<g class="st9">
						<g>
							<path class="st2" d="M31.7,38.6c0,0-0.6,1-0.4,2.9c0.6,4.1-1.1,7.6-6,6.1l-0.2-0.1l-0.2-0.2c-4.9-4.1-6.5-9.5-5.9-13
								c0.3-1.7-0.4-3.3-0.4-3.3l-0.4-1l2.7-0.7l0.4,0.4c0.3,0.3,0.7,0.6,1,0.8c1.3,0.7,2.2,0.4,2.2,0.4l0.6-0.2l0.6,0.9
								c0,0,1,1.5,2.2,2.2c0.3,0.2,0.7,0.3,1,0.4l0.4,0.1l2.7,3.7L31.7,38.6z"/>
						</g>
						<g>
							<path class="st0" d="M33.2,37.4l-2.7-3.7l-0.4-0.1c-0.3,0-0.7-0.2-1-0.4c-1.2-0.7-2.2-2.2-2.2-2.2l-0.6-0.9l-0.6,0.2l0,0
								c-0.1,0-1.1,0.3-2.2-0.4c-0.3-0.2-0.7-0.5-1-0.8l-0.4-0.5l-2.7,0.7l-1.1,0.7l2.7-0.6l0.4,0.4c0.3,0.3,0.7,0.6,1,0.8
								c1.3,0.7,2.2,0.4,2.2,0.4l0.6-0.2l0.6,0.9c0,0,1,1.5,2.2,2.2c0.3,0.2,0.7,0.3,1,0.4l0.4,0.1l2.7,3.7l-0.4,0.6
								c0,0-0.6,1-0.4,2.9c0.3,2.6-0.2,4.9-1.8,5.9l1.1-0.6c1.7-1,2.2-3.4,1.9-6c-0.3-2,0.4-2.9,0.4-2.9L33.2,37.4z"/>
						</g>
						<g>
							<path class="st10" d="M25.2,32.1c0.1,0.1,1.2,1.9,2.8,2.8c0.4,0.2,0.9,0.4,1.3,0.5l1.6,2.3c0,0.1-0.8,1.1-0.5,3.5
								c0.4,3.3-0.7,6.8-5.3,5.4c-4.6-3.9-5.7-8.7-5.3-11.5c0.3-2-0.4-4-0.5-4.1l1.6-0.4c0.5,0.5,0.9,0.8,1.3,1
								C23.9,32.6,25.1,32.1,25.2,32.1z"/>
						</g>
					</g>
				</g>
				<g>
					<g>
						<path class="st8" d="M26.7,39.1c0.4,0.2,0.6,0.7,0.6,1.1l0,3c0,0.4-0.3,0.6-0.6,0.4l-3.4-2c-0.4-0.2-0.6-0.7-0.6-1.1l0-3
							c0-0.4,0.3-0.6,0.6-0.4L26.7,39.1z M25.2,40.7c0.2,0,0.3-0.1,0.3-0.4c0-0.3-0.2-0.7-0.5-0.9c-0.3-0.2-0.5,0-0.5,0.3
							c0,0.2,0.1,0.5,0.3,0.7l0,0.9l0.4,0.2L25.2,40.7"/>
					</g>
					<g>
						<path class="st8" d="M25,35.3C25,35.3,25,35.3,25,35.3c1,0.6,1.7,1.9,1.7,3l0,0.8l-0.6-0.3l0-0.8c0-0.7-0.5-1.6-1.1-2
							c0,0,0,0,0,0c-0.3-0.2-0.6-0.2-0.8-0.1c-0.2,0.1-0.3,0.4-0.3,0.7l0,0.9l-0.6-0.3l0-0.9c0-0.5,0.2-0.9,0.5-1.1
							C24.1,35,24.6,35,25,35.3z"/>
					</g>
				</g>
			</g>
		</g>
	</g>
	<g>
		<polygon class="st4" points="11.4,8.8 24.8,1 38.7,9 25.3,16.8 		"/>
	</g>
	<g>
		<path class="st3" d="M34.4,8.4c0.5,0.3,0.5,0.7,0,1l-8.5,4.9c-0.5,0.3-1.3,0.3-1.7,0l-8.5-4.9c-0.5-0.3-0.5-0.7,0-1l8.5-4.9
			c0.5-0.3,1.3-0.3,1.7,0L34.4,8.4z"/>
	</g>
</g>
</svg>
