<?xml version="1.0" encoding="utf-8"?>
<!-- Generator: Adobe Illustrator 26.5.0, SVG Export Plug-In . SVG Version: 6.00 Build 0)  -->
<svg version="1.1" id="Layer_1" xmlns="http://www.w3.org/2000/svg" xmlns:xlink="http://www.w3.org/1999/xlink" x="0px" y="0px"
	 viewBox="0 0 50 50" style="enable-background:new 0 0 50 50;" xml:space="preserve">
<style type="text/css">
	.st0{fill:none;}
	.st1{fill:#FFA54C;}
	.st2{fill:#7B3800;}
	.st3{fill:#532500;}
	.st4{fill:#893E00;}
	.st5{fill:#FF8200;}
	.st6{fill:url(#SVGID_1_);}
	.st7{fill:url(#SVGID_00000113335708294859539700000006034880555666243204_);}
	.st8{fill:url(#SVGID_00000064355863530440354570000015872383481491730323_);}
	.st9{fill:url(#SVGID_00000041257488955920073180000002642416291943324045_);}
	.st10{fill:url(#SVGID_00000070097886242648761120000008568732628783538581_);}
	.st11{fill:url(#SVGID_00000107588335602990177990000007040192911374416816_);}
	.st12{fill:url(#SVGID_00000121977240939611080020000005809443933719495334_);}
	.st13{fill:url(#SVGID_00000091017535086657754290000014387593112338943382_);}
	.st14{fill:#FF8B0D;}
	.st15{fill:url(#SVGID_00000034809775504249812350000003636961055885843867_);}
	.st16{fill:url(#SVGID_00000132084138943496201180000014372428742772087682_);}
	.st17{fill:url(#SVGID_00000178887193190182321050000000435653896039455929_);}
	.st18{fill:url(#SVGID_00000088812262132840576980000003118974316489818786_);}
	.st19{fill:url(#SVGID_00000016775383650758067260000016306655525664855974_);}
	.st20{fill:url(#SVGID_00000144312065920724369580000016423307718900428708_);}
	.st21{fill:url(#SVGID_00000124844700851367845850000000124109219608529827_);}
	.st22{fill:url(#SVGID_00000055667896854170044510000017568724920640857222_);}
	.st23{fill:url(#SVGID_00000115514363579286180290000016485358325481509004_);}
	.st24{fill:url(#SVGID_00000083058883824662753630000017142703633661311640_);}
	.st25{fill:url(#SVGID_00000155828323663674490250000000990874326746801804_);}
	.st26{fill:url(#SVGID_00000044896381303779198160000012904960591532326795_);}
	.st27{fill:url(#SVGID_00000155106077264597224660000014798444408137105806_);}
	.st28{fill:url(#SVGID_00000105417859194963562430000010378937952611323785_);}
	.st29{fill:url(#SVGID_00000102510919953427178720000009573760466779278983_);}
	.st30{fill:url(#SVGID_00000003089795911009533790000018124125054938716552_);}
	.st31{fill:url(#SVGID_00000017490186845600046880000015082262258509672594_);}
	.st32{fill:url(#SVGID_00000036217145400794289320000016018840689768023172_);}
	.st33{fill:url(#SVGID_00000182499013084823278940000013608252873870737546_);}
	.st34{fill:url(#SVGID_00000070818354175848529190000012274592848553016485_);}
	.st35{fill:#FABC72;}
	.st36{enable-background:new    ;}
	.st37{fill:#FF5C00;}
	.st38{fill:#D56D00;}
</style>
<pattern  y="50" width="32.3" height="32.3" patternUnits="userSpaceOnUse" id="SVGID_1_2" viewBox="0 -32.3 32.3 32.3" style="overflow:visible;">
	<g>
		<rect y="-32.3" class="st0" width="32.3" height="32.3"/>
		<g>
			<rect y="-32.3" class="st0" width="32.3" height="32.3"/>
			<g>
				<rect y="-32.3" class="st1" width="32.3" height="32.3"/>
			</g>
		</g>
	</g>
</pattern>
<pattern  y="50" width="32.3" height="32.3" patternUnits="userSpaceOnUse" id="SVGID_10_2" viewBox="0 -32.3 32.3 32.3" style="overflow:visible;">
	<g>
		<rect y="-32.3" class="st0" width="32.3" height="32.3"/>
		<g>
			<rect y="-32.3" class="st0" width="32.3" height="32.3"/>
			<g>
				<rect y="-32.3" class="st1" width="32.3" height="32.3"/>
			</g>
		</g>
	</g>
</pattern>
<pattern  y="50" width="32.3" height="32.3" patternUnits="userSpaceOnUse" id="SVGID_11_2" viewBox="0 -32.3 32.3 32.3" style="overflow:visible;">
	<g>
		<rect y="-32.3" class="st0" width="32.3" height="32.3"/>
		<g>
			<rect y="-32.3" class="st0" width="32.3" height="32.3"/>
			<g>
				<rect y="-32.3" class="st1" width="32.3" height="32.3"/>
			</g>
		</g>
	</g>
</pattern>
<pattern  y="50" width="32.3" height="32.3" patternUnits="userSpaceOnUse" id="SVGID_12_2" viewBox="0 -32.3 32.3 32.3" style="overflow:visible;">
	<g>
		<rect y="-32.3" class="st0" width="32.3" height="32.3"/>
		<g>
			<rect y="-32.3" class="st0" width="32.3" height="32.3"/>
			<g>
				<rect y="-32.3" class="st1" width="32.3" height="32.3"/>
			</g>
		</g>
	</g>
</pattern>
<pattern  y="50" width="32.3" height="32.3" patternUnits="userSpaceOnUse" id="SVGID_13_2" viewBox="0 -32.3 32.3 32.3" style="overflow:visible;">
	<g>
		<rect y="-32.3" class="st0" width="32.3" height="32.3"/>
		<g>
			<rect y="-32.3" class="st0" width="32.3" height="32.3"/>
			<g>
				<rect y="-32.3" class="st1" width="32.3" height="32.3"/>
			</g>
		</g>
	</g>
</pattern>
<pattern  y="50" width="32.3" height="32.3" patternUnits="userSpaceOnUse" id="SVGID_14_2" viewBox="0 -32.3 32.3 32.3" style="overflow:visible;">
	<g>
		<rect y="-32.3" class="st0" width="32.3" height="32.3"/>
		<g>
			<rect y="-32.3" class="st0" width="32.3" height="32.3"/>
			<g>
				<rect y="-32.3" class="st1" width="32.3" height="32.3"/>
			</g>
		</g>
	</g>
</pattern>
<pattern  y="50" width="32.3" height="32.3" patternUnits="userSpaceOnUse" id="SVGID_15_2" viewBox="0 -32.3 32.3 32.3" style="overflow:visible;">
	<g>
		<rect y="-32.3" class="st0" width="32.3" height="32.3"/>
		<g>
			<rect y="-32.3" class="st0" width="32.3" height="32.3"/>
			<g>
				<rect y="-32.3" class="st1" width="32.3" height="32.3"/>
			</g>
		</g>
	</g>
</pattern>
<pattern  y="50" width="32.3" height="32.3" patternUnits="userSpaceOnUse" id="SVGID_16_2" viewBox="0 -32.3 32.3 32.3" style="overflow:visible;">
	<g>
		<rect y="-32.3" class="st0" width="32.3" height="32.3"/>
		<g>
			<rect y="-32.3" class="st0" width="32.3" height="32.3"/>
			<g>
				<rect y="-32.3" class="st1" width="32.3" height="32.3"/>
			</g>
		</g>
	</g>
</pattern>
<pattern  y="50" width="32.3" height="32.3" patternUnits="userSpaceOnUse" id="SVGID_17_2" viewBox="0 -32.3 32.3 32.3" style="overflow:visible;">
	<g>
		<rect y="-32.3" class="st0" width="32.3" height="32.3"/>
		<g>
			<rect y="-32.3" class="st0" width="32.3" height="32.3"/>
			<g>
				<rect y="-32.3" class="st1" width="32.3" height="32.3"/>
			</g>
		</g>
	</g>
</pattern>
<pattern  y="50" width="32.3" height="32.3" patternUnits="userSpaceOnUse" id="SVGID_18_2" viewBox="0 -32.3 32.3 32.3" style="overflow:visible;">
	<g>
		<rect y="-32.3" class="st0" width="32.3" height="32.3"/>
		<g>
			<rect y="-32.3" class="st0" width="32.3" height="32.3"/>
			<g>
				<rect y="-32.3" class="st1" width="32.3" height="32.3"/>
			</g>
		</g>
	</g>
</pattern>
<pattern  y="50" width="32.3" height="32.3" patternUnits="userSpaceOnUse" id="SVGID_19_2" viewBox="0 -32.3 32.3 32.3" style="overflow:visible;">
	<g>
		<rect y="-32.3" class="st0" width="32.3" height="32.3"/>
		<g>
			<rect y="-32.3" class="st0" width="32.3" height="32.3"/>
			<g>
				<rect y="-32.3" class="st1" width="32.3" height="32.3"/>
			</g>
		</g>
	</g>
</pattern>
<pattern  y="50" width="32.3" height="32.3" patternUnits="userSpaceOnUse" id="SVGID_2_2" viewBox="0 -32.3 32.3 32.3" style="overflow:visible;">
	<g>
		<rect y="-32.3" class="st0" width="32.3" height="32.3"/>
		<g>
			<rect y="-32.3" class="st0" width="32.3" height="32.3"/>
			<g>
				<rect y="-32.3" class="st1" width="32.3" height="32.3"/>
			</g>
		</g>
	</g>
</pattern>
<pattern  y="50" width="32.3" height="32.3" patternUnits="userSpaceOnUse" id="SVGID_20_2" viewBox="0 -32.3 32.3 32.3" style="overflow:visible;">
	<g>
		<rect y="-32.3" class="st0" width="32.3" height="32.3"/>
		<g>
			<rect y="-32.3" class="st0" width="32.3" height="32.3"/>
			<g>
				<rect y="-32.3" class="st1" width="32.3" height="32.3"/>
			</g>
		</g>
	</g>
</pattern>
<pattern  y="50" width="32.3" height="32.3" patternUnits="userSpaceOnUse" id="SVGID_21_2" viewBox="0 -32.3 32.3 32.3" style="overflow:visible;">
	<g>
		<rect y="-32.3" class="st0" width="32.3" height="32.3"/>
		<g>
			<rect y="-32.3" class="st0" width="32.3" height="32.3"/>
			<g>
				<rect y="-32.3" class="st1" width="32.3" height="32.3"/>
			</g>
		</g>
	</g>
</pattern>
<pattern  y="50" width="32.3" height="32.3" patternUnits="userSpaceOnUse" id="SVGID_22_2" viewBox="0 -32.3 32.3 32.3" style="overflow:visible;">
	<g>
		<rect y="-32.3" class="st0" width="32.3" height="32.3"/>
		<g>
			<rect y="-32.3" class="st0" width="32.3" height="32.3"/>
			<g>
				<rect y="-32.3" class="st1" width="32.3" height="32.3"/>
			</g>
		</g>
	</g>
</pattern>
<pattern  y="50" width="32.3" height="32.3" patternUnits="userSpaceOnUse" id="SVGID_23_2" viewBox="0 -32.3 32.3 32.3" style="overflow:visible;">
	<g>
		<rect y="-32.3" class="st0" width="32.3" height="32.3"/>
		<g>
			<rect y="-32.3" class="st0" width="32.3" height="32.3"/>
			<g>
				<rect y="-32.3" class="st1" width="32.3" height="32.3"/>
			</g>
		</g>
	</g>
</pattern>
<pattern  y="50" width="32.3" height="32.3" patternUnits="userSpaceOnUse" id="SVGID_24_2" viewBox="0 -32.3 32.3 32.3" style="overflow:visible;">
	<g>
		<rect y="-32.3" class="st0" width="32.3" height="32.3"/>
		<g>
			<rect y="-32.3" class="st0" width="32.3" height="32.3"/>
			<g>
				<rect y="-32.3" class="st1" width="32.3" height="32.3"/>
			</g>
		</g>
	</g>
</pattern>
<pattern  y="50" width="32.3" height="32.3" patternUnits="userSpaceOnUse" id="SVGID_25_2" viewBox="0 -32.3 32.3 32.3" style="overflow:visible;">
	<g>
		<rect y="-32.3" class="st0" width="32.3" height="32.3"/>
		<g>
			<rect y="-32.3" class="st0" width="32.3" height="32.3"/>
			<g>
				<rect y="-32.3" class="st1" width="32.3" height="32.3"/>
			</g>
		</g>
	</g>
</pattern>
<pattern  y="50" width="32.3" height="32.3" patternUnits="userSpaceOnUse" id="SVGID_26_2" viewBox="0 -32.3 32.3 32.3" style="overflow:visible;">
	<g>
		<rect y="-32.3" class="st0" width="32.3" height="32.3"/>
		<g>
			<rect y="-32.3" class="st0" width="32.3" height="32.3"/>
			<g>
				<rect y="-32.3" class="st1" width="32.3" height="32.3"/>
			</g>
		</g>
	</g>
</pattern>
<pattern  y="50" width="32.3" height="32.3" patternUnits="userSpaceOnUse" id="SVGID_27_2" viewBox="0 -32.3 32.3 32.3" style="overflow:visible;">
	<g>
		<rect y="-32.3" class="st0" width="32.3" height="32.3"/>
		<g>
			<rect y="-32.3" class="st0" width="32.3" height="32.3"/>
			<g>
				<rect y="-32.3" class="st1" width="32.3" height="32.3"/>
			</g>
		</g>
	</g>
</pattern>
<pattern  y="50" width="32.3" height="32.3" patternUnits="userSpaceOnUse" id="SVGID_28_2" viewBox="0 -32.3 32.3 32.3" style="overflow:visible;">
	<g>
		<rect y="-32.3" class="st0" width="32.3" height="32.3"/>
		<g>
			<rect y="-32.3" class="st0" width="32.3" height="32.3"/>
			<g>
				<rect y="-32.3" class="st1" width="32.3" height="32.3"/>
			</g>
		</g>
	</g>
</pattern>
<pattern  y="50" width="32.3" height="32.3" patternUnits="userSpaceOnUse" id="SVGID_3_2" viewBox="0 -32.3 32.3 32.3" style="overflow:visible;">
	<g>
		<rect y="-32.3" class="st0" width="32.3" height="32.3"/>
		<g>
			<rect y="-32.3" class="st0" width="32.3" height="32.3"/>
			<g>
				<rect y="-32.3" class="st1" width="32.3" height="32.3"/>
			</g>
		</g>
	</g>
</pattern>
<pattern  y="50" width="32.3" height="32.3" patternUnits="userSpaceOnUse" id="SVGID_4_2" viewBox="0 -32.3 32.3 32.3" style="overflow:visible;">
	<g>
		<rect y="-32.3" class="st0" width="32.3" height="32.3"/>
		<g>
			<rect y="-32.3" class="st0" width="32.3" height="32.3"/>
			<g>
				<rect y="-32.3" class="st1" width="32.3" height="32.3"/>
			</g>
		</g>
	</g>
</pattern>
<pattern  y="50" width="32.3" height="32.3" patternUnits="userSpaceOnUse" id="SVGID_5_2" viewBox="0 -32.3 32.3 32.3" style="overflow:visible;">
	<g>
		<rect y="-32.3" class="st0" width="32.3" height="32.3"/>
		<g>
			<rect y="-32.3" class="st0" width="32.3" height="32.3"/>
			<g>
				<rect y="-32.3" class="st1" width="32.3" height="32.3"/>
			</g>
		</g>
	</g>
</pattern>
<pattern  y="50" width="32.3" height="32.3" patternUnits="userSpaceOnUse" id="SVGID_6_2" viewBox="0 -32.3 32.3 32.3" style="overflow:visible;">
	<g>
		<rect y="-32.3" class="st0" width="32.3" height="32.3"/>
		<g>
			<rect y="-32.3" class="st0" width="32.3" height="32.3"/>
			<g>
				<rect y="-32.3" class="st1" width="32.3" height="32.3"/>
			</g>
		</g>
	</g>
</pattern>
<pattern  y="50" width="32.3" height="32.3" patternUnits="userSpaceOnUse" id="SVGID_7_2" viewBox="0 -32.3 32.3 32.3" style="overflow:visible;">
	<g>
		<rect y="-32.3" class="st0" width="32.3" height="32.3"/>
		<g>
			<rect y="-32.3" class="st0" width="32.3" height="32.3"/>
			<g>
				<rect y="-32.3" class="st1" width="32.3" height="32.3"/>
			</g>
		</g>
	</g>
</pattern>
<pattern  y="50" width="32.3" height="32.3" patternUnits="userSpaceOnUse" id="SVGID_8_2" viewBox="0 -32.3 32.3 32.3" style="overflow:visible;">
	<g>
		<rect y="-32.3" class="st0" width="32.3" height="32.3"/>
		<g>
			<rect y="-32.3" class="st0" width="32.3" height="32.3"/>
			<g>
				<rect y="-32.3" class="st1" width="32.3" height="32.3"/>
			</g>
		</g>
	</g>
</pattern>
<pattern  y="50" width="32.3" height="32.3" patternUnits="userSpaceOnUse" id="SVGID_9_2" viewBox="0 -32.3 32.3 32.3" style="overflow:visible;">
	<g>
		<rect y="-32.3" class="st0" width="32.3" height="32.3"/>
		<g>
			<rect y="-32.3" class="st0" width="32.3" height="32.3"/>
			<g>
				<rect y="-32.3" class="st1" width="32.3" height="32.3"/>
			</g>
		</g>
	</g>
</pattern>
<g>
	<g>
		<g>
			<path class="st2" d="M12.4,11.1l0,28.3c0,0.4,0.3,0.8,0.8,1.1l12.1,7c1.1,0.6,2.8,0.6,3.9,0L43.9,39c0.5-0.3,0.8-0.7,0.8-1.1
				l0-28.3C44.7,10,12.4,11.5,12.4,11.1z"/>
			<path class="st3" d="M13.2,12.2l12.1,7c0.6,0.3,1.3,0.5,2,0.5v28.3c-0.7,0-1.4-0.1-2-0.5l-12.1-7c-0.5-0.3-0.8-0.7-0.8-1.1
				l0-28.3C12.4,11.5,12.7,11.9,13.2,12.2z"/>
			<path class="st4" d="M13.3,9.9c-1.1,0.6-1.1,1.6,0,2.3l12.1,7c1.1,0.6,2.8,0.6,3.9,0l14.6-8.5c1.1-0.6,1.1-1.6,0-2.3l-12.1-7
				c-1.1-0.6-2.8-0.6-3.9,0L13.3,9.9z"/>
			<path class="st2" d="M18,10.6c-0.5,0.3-0.5,0.7,0,1l8.4,4.9c0.5,0.3,1.3,0.3,1.7,0l11-6.3c0.5-0.3,0.5-0.7,0-1l-8.4-4.9
				c-0.5-0.3-1.3-0.3-1.7,0L18,10.6z"/>
			<g>
				<g>
					<g>
						<path class="st5" d="M30.3,20.7l12.5-7.2c0.3-0.2,0.6,0,0.6,0.3v23.1c0,0.3-0.1,0.5-0.4,0.7l-12.5,7.2c-0.3,0.2-0.6,0-0.6-0.3
							V21.4C29.9,21.1,30.1,20.8,30.3,20.7z"/>
						
							<pattern  id="SVGID_1_" xlink:href="#SVGID_1_2" patternTransform="matrix(-4.873000e-02 0 0 -4.873000e-02 -16855.7754 42.9075)">
						</pattern>
						<path class="st6" d="M42.2,15.3c-0.2,0.1-0.4,0.5-0.4,0.7c0,0.3,0.2,0.4,0.4,0.2s0.4-0.5,0.4-0.7
							C42.6,15.2,42.4,15.1,42.2,15.3z"/>
						
							<pattern  id="SVGID_00000027597162056638428720000017781477127653572797_" xlink:href="#SVGID_2_2" patternTransform="matrix(-4.873000e-02 0 0 -4.873000e-02 -16855.7754 42.9075)">
						</pattern>
						<path style="fill:url(#SVGID_00000027597162056638428720000017781477127653572797_);" d="M40.8,16.1c-0.2,0.1-0.4,0.5-0.4,0.7
							s0.2,0.4,0.4,0.2c0.2-0.1,0.4-0.5,0.4-0.7C41.2,16,41,15.9,40.8,16.1z"/>
						
							<pattern  id="SVGID_00000142152269282654643970000007532646378442985381_" xlink:href="#SVGID_3_2" patternTransform="matrix(-4.873000e-02 0 0 -4.873000e-02 -16855.7754 42.9075)">
						</pattern>
						<path style="fill:url(#SVGID_00000142152269282654643970000007532646378442985381_);" d="M39.4,16.9C39.2,17,39,17.3,39,17.6
							s0.2,0.4,0.4,0.2c0.2-0.1,0.4-0.5,0.4-0.7C39.9,16.8,39.7,16.7,39.4,16.9z"/>
						
							<pattern  id="SVGID_00000079482480756798674280000000116344897457903276_" xlink:href="#SVGID_4_2" patternTransform="matrix(-4.873000e-02 0 0 -4.873000e-02 -16855.7754 39.4818)">
						</pattern>
						<path style="fill:url(#SVGID_00000079482480756798674280000000116344897457903276_);" d="M42.2,18.7c-0.2,0.1-0.4,0.5-0.4,0.7
							s0.2,0.4,0.4,0.2s0.4-0.5,0.4-0.7C42.6,18.7,42.4,18.6,42.2,18.7z"/>
						
							<pattern  id="SVGID_00000124863635836527206240000012709439714166135993_" xlink:href="#SVGID_5_2" patternTransform="matrix(-4.873000e-02 0 0 -4.873000e-02 -16855.7754 39.4818)">
						</pattern>
						<path style="fill:url(#SVGID_00000124863635836527206240000012709439714166135993_);" d="M40.8,19.5c-0.2,0.1-0.4,0.5-0.4,0.7
							s0.2,0.4,0.4,0.2c0.2-0.1,0.4-0.5,0.4-0.7C41.2,19.5,41,19.4,40.8,19.5z"/>
						
							<pattern  id="SVGID_00000075154014334110072750000002782654212557486774_" xlink:href="#SVGID_6_2" patternTransform="matrix(-4.873000e-02 0 0 -4.873000e-02 -16855.7754 39.4818)">
						</pattern>
						<path style="fill:url(#SVGID_00000075154014334110072750000002782654212557486774_);" d="M39.4,20.3C39.2,20.4,39,20.8,39,21
							s0.2,0.4,0.4,0.2c0.2-0.1,0.4-0.5,0.4-0.7C39.9,20.3,39.7,20.2,39.4,20.3z"/>
						
							<pattern  id="SVGID_00000094585202771225272530000007300665572675518883_" xlink:href="#SVGID_7_2" patternTransform="matrix(-4.873000e-02 0 0 -4.873000e-02 -16858.2695 22.0941)">
						</pattern>
						<polygon style="fill:url(#SVGID_00000094585202771225272530000007300665572675518883_);" points="31.2,21.4 34.4,19.6 
							34.4,20.8 31.2,22.7 						"/>
						
							<pattern  id="SVGID_00000085248691434300733700000017473145835608427909_" xlink:href="#SVGID_8_2" patternTransform="matrix(-4.873000e-02 0 0 -4.873000e-02 -16858.2695 18.6693)">
						</pattern>
						<polygon style="fill:url(#SVGID_00000085248691434300733700000017473145835608427909_);" points="31.2,24.9 34.4,23 
							34.4,24.2 31.2,26.1 						"/>
					</g>
				</g>
				<g>
					<g>
						<path class="st4" d="M25.2,21.3c0.3,0.2,0.6,0.7,0.6,1l0,23.7c0,0.4-0.3,0.5-0.6,0.3c-0.3-0.2-0.6-0.7-0.6-1l0-23.7
							C24.6,21.3,24.9,21.1,25.2,21.3z"/>
						<path class="st14" d="M24.9,45.2l0-23.7c0-0.1,0-0.2,0.1-0.3c-0.2,0-0.3,0.1-0.4,0.4l0,23.7c0,0.4,0.3,0.8,0.6,1
							c0.2,0.1,0.4,0.1,0.5-0.1c-0.1,0-0.2,0-0.3-0.1C25.1,46,24.9,45.6,24.9,45.2z"/>
					</g>
					<g>
						<path class="st4" d="M14.8,15.3c0.3,0.2,0.6,0.7,0.6,1l0,23.7c0,0.4-0.3,0.5-0.6,0.3c-0.3-0.2-0.6-0.7-0.6-1l0-23.7
							C14.2,15.2,14.4,15.1,14.8,15.3z"/>
						<path class="st14" d="M14.4,39.1l0-23.7c0-0.1,0-0.2,0.1-0.3c-0.2,0-0.3,0.1-0.4,0.4l0,23.7c0,0.4,0.3,0.8,0.6,1
							c0.2,0.1,0.4,0.1,0.5-0.1c-0.1,0-0.2,0-0.3-0.1C14.7,40,14.4,39.5,14.4,39.1z"/>
					</g>
					<g>
						<path class="st4" d="M17.4,16.8c0.3,0.2,0.6,0.7,0.6,1l0,23.7c0,0.4-0.3,0.5-0.6,0.3s-0.6-0.7-0.6-1l0-23.7
							C16.8,16.8,17,16.6,17.4,16.8z"/>
						<path class="st14" d="M17,40.6l0-23.7c0-0.1,0-0.2,0.1-0.3c-0.2,0-0.3,0.1-0.4,0.4l0,23.7c0,0.4,0.3,0.8,0.6,1
							c0.2,0.1,0.4,0.1,0.5-0.1c-0.1,0-0.2,0-0.3-0.1C17.3,41.5,17,41,17,40.6z"/>
					</g>
					<g>
						<path class="st4" d="M20,18.3c0.3,0.2,0.6,0.7,0.6,1l0,23.7c0,0.4-0.3,0.5-0.6,0.3c-0.3-0.2-0.6-0.7-0.6-1l0-23.7
							C19.4,18.3,19.6,18.1,20,18.3z"/>
						<path class="st14" d="M19.6,42.2l0-23.7c0-0.1,0-0.2,0.1-0.3c-0.2,0-0.3,0.1-0.4,0.4l0,23.7c0,0.4,0.3,0.8,0.6,1
							c0.2,0.1,0.4,0.1,0.5-0.1c-0.1,0-0.2,0-0.3-0.1C19.9,43,19.6,42.5,19.6,42.2z"/>
					</g>
					<g>
						<path class="st4" d="M22.6,19.8c0.3,0.2,0.6,0.7,0.6,1l0,23.7c0,0.4-0.3,0.5-0.6,0.3c-0.3-0.2-0.6-0.7-0.6-1l0-23.7
							C22,19.8,22.3,19.6,22.6,19.8z"/>
						<path class="st14" d="M22.3,43.7l0-23.7c0-0.1,0-0.2,0.1-0.3c-0.2,0-0.3,0.1-0.4,0.4l0,23.7c0,0.4,0.3,0.8,0.6,1
							c0.2,0.1,0.4,0.1,0.5-0.1c-0.1,0-0.2,0-0.3-0.1C22.5,44.5,22.3,44.1,22.3,43.7z"/>
					</g>
				</g>
			</g>
		</g>
		<g>
			
				<pattern  id="SVGID_00000086681374848764729190000014839470746791238823_" xlink:href="#SVGID_9_2" patternTransform="matrix(-4.873000e-02 0 0 -4.873000e-02 -16855.7754 36.057)">
			</pattern>
			<path style="fill:url(#SVGID_00000086681374848764729190000014839470746791238823_);" d="M42.2,22.1c-0.2,0.1-0.4,0.5-0.4,0.7
				s0.2,0.4,0.4,0.2s0.4-0.5,0.4-0.7C42.6,22.1,42.4,22,42.2,22.1z"/>
			
				<pattern  id="SVGID_00000130648484094139265420000000724012784933161090_" xlink:href="#SVGID_10_2" patternTransform="matrix(-4.873000e-02 0 0 -4.873000e-02 -16855.7754 36.057)">
			</pattern>
			<path style="fill:url(#SVGID_00000130648484094139265420000000724012784933161090_);" d="M40.8,22.9c-0.2,0.1-0.4,0.5-0.4,0.7
				s0.2,0.4,0.4,0.2c0.2-0.1,0.4-0.5,0.4-0.7C41.2,22.9,41,22.8,40.8,22.9z"/>
			
				<pattern  id="SVGID_00000133487877537206751710000011966853468165569457_" xlink:href="#SVGID_11_2" patternTransform="matrix(-4.873000e-02 0 0 -4.873000e-02 -16855.7754 36.057)">
			</pattern>
			<path style="fill:url(#SVGID_00000133487877537206751710000011966853468165569457_);" d="M39.4,23.7c-0.2,0.1-0.4,0.5-0.4,0.7
				s0.2,0.4,0.4,0.2c0.2-0.1,0.4-0.5,0.4-0.7C39.9,23.7,39.7,23.6,39.4,23.7z"/>
			
				<pattern  id="SVGID_00000150089496822243090140000009138865475331184543_" xlink:href="#SVGID_12_2" patternTransform="matrix(-4.873000e-02 0 0 -4.873000e-02 -16858.2695 15.2445)">
			</pattern>
			<polygon style="fill:url(#SVGID_00000150089496822243090140000009138865475331184543_);" points="31.2,28.3 34.4,26.4 34.4,27.7 
				31.2,29.5 			"/>
		</g>
		<g>
			
				<pattern  id="SVGID_00000134929190227141321590000003730433528660654757_" xlink:href="#SVGID_13_2" patternTransform="matrix(-4.873000e-02 0 0 -4.873000e-02 -16855.7754 32.6312)">
			</pattern>
			<path style="fill:url(#SVGID_00000134929190227141321590000003730433528660654757_);" d="M42.2,25.6c-0.2,0.1-0.4,0.5-0.4,0.7
				s0.2,0.4,0.4,0.2s0.4-0.5,0.4-0.7C42.6,25.5,42.4,25.4,42.2,25.6z"/>
			
				<pattern  id="SVGID_00000099637905361140299580000009105000049275411628_" xlink:href="#SVGID_14_2" patternTransform="matrix(-4.873000e-02 0 0 -4.873000e-02 -16855.7754 32.6312)">
			</pattern>
			<path style="fill:url(#SVGID_00000099637905361140299580000009105000049275411628_);" d="M40.8,26.4c-0.2,0.1-0.4,0.5-0.4,0.7
				s0.2,0.4,0.4,0.2c0.2-0.1,0.4-0.5,0.4-0.7C41.2,26.3,41,26.2,40.8,26.4z"/>
			
				<pattern  id="SVGID_00000118363469766569642870000008756987879410016662_" xlink:href="#SVGID_15_2" patternTransform="matrix(-4.873000e-02 0 0 -4.873000e-02 -16855.7754 32.6312)">
			</pattern>
			<path style="fill:url(#SVGID_00000118363469766569642870000008756987879410016662_);" d="M39.4,27.2c-0.2,0.1-0.4,0.5-0.4,0.7
				s0.2,0.4,0.4,0.2c0.2-0.1,0.4-0.5,0.4-0.7C39.9,27.1,39.7,27,39.4,27.2z"/>
			
				<pattern  id="SVGID_00000168817712582362528440000008481147307846493875_" xlink:href="#SVGID_16_2" patternTransform="matrix(-4.873000e-02 0 0 -4.873000e-02 -16858.2695 11.8187)">
			</pattern>
			<polygon style="fill:url(#SVGID_00000168817712582362528440000008481147307846493875_);" points="31.2,31.7 34.4,29.9 34.4,31.1 
				31.2,32.9 			"/>
		</g>
		<g>
			
				<pattern  id="SVGID_00000141424406092789247660000018112003393510959526_" xlink:href="#SVGID_17_2" patternTransform="matrix(-4.873000e-02 0 0 -4.873000e-02 -16855.7754 29.2064)">
			</pattern>
			<path style="fill:url(#SVGID_00000141424406092789247660000018112003393510959526_);" d="M42.2,29c-0.2,0.1-0.4,0.5-0.4,0.7
				s0.2,0.4,0.4,0.2s0.4-0.5,0.4-0.7C42.6,28.9,42.4,28.8,42.2,29z"/>
			
				<pattern  id="SVGID_00000093165944640762391060000001407564918247017907_" xlink:href="#SVGID_18_2" patternTransform="matrix(-4.873000e-02 0 0 -4.873000e-02 -16855.7754 29.2064)">
			</pattern>
			<path style="fill:url(#SVGID_00000093165944640762391060000001407564918247017907_);" d="M40.8,29.8c-0.2,0.1-0.4,0.5-0.4,0.7
				s0.2,0.4,0.4,0.2c0.2-0.1,0.4-0.5,0.4-0.7C41.2,29.7,41,29.6,40.8,29.8z"/>
			
				<pattern  id="SVGID_00000029745773515834362260000005160870418129696896_" xlink:href="#SVGID_19_2" patternTransform="matrix(-4.873000e-02 0 0 -4.873000e-02 -16855.7754 29.2064)">
			</pattern>
			<path style="fill:url(#SVGID_00000029745773515834362260000005160870418129696896_);" d="M39.4,30.6C39.2,30.7,39,31,39,31.3
				s0.2,0.4,0.4,0.2c0.2-0.1,0.4-0.5,0.4-0.7C39.9,30.6,39.7,30.4,39.4,30.6z"/>
			
				<pattern  id="SVGID_00000173129903398409936370000002521771930576709762_" xlink:href="#SVGID_20_2" patternTransform="matrix(-4.873000e-02 0 0 -4.873000e-02 -16858.2695 8.3939)">
			</pattern>
			<polygon style="fill:url(#SVGID_00000173129903398409936370000002521771930576709762_);" points="31.2,35.1 34.4,33.3 34.4,34.5 
				31.2,36.4 			"/>
		</g>
		<g>
			
				<pattern  id="SVGID_00000056386138821361100130000005581867470336460476_" xlink:href="#SVGID_21_2" patternTransform="matrix(-4.873000e-02 0 0 -4.873000e-02 -16855.7754 25.7816)">
			</pattern>
			<path style="fill:url(#SVGID_00000056386138821361100130000005581867470336460476_);" d="M42.2,32.4c-0.2,0.1-0.4,0.5-0.4,0.7
				s0.2,0.4,0.4,0.2c0.2-0.1,0.4-0.5,0.4-0.7C42.6,32.4,42.4,32.3,42.2,32.4z"/>
			
				<pattern  id="SVGID_00000078745537046948463180000005539979205953620663_" xlink:href="#SVGID_22_2" patternTransform="matrix(-4.873000e-02 0 0 -4.873000e-02 -16855.7754 25.7816)">
			</pattern>
			<path style="fill:url(#SVGID_00000078745537046948463180000005539979205953620663_);" d="M40.8,33.2c-0.2,0.1-0.4,0.5-0.4,0.7
				s0.2,0.4,0.4,0.2c0.2-0.1,0.4-0.5,0.4-0.7C41.2,33.2,41,33.1,40.8,33.2z"/>
			
				<pattern  id="SVGID_00000119799993279365878450000002156604111963639188_" xlink:href="#SVGID_23_2" patternTransform="matrix(-4.873000e-02 0 0 -4.873000e-02 -16855.7754 25.7816)">
			</pattern>
			<path style="fill:url(#SVGID_00000119799993279365878450000002156604111963639188_);" d="M39.4,34c-0.2,0.1-0.4,0.5-0.4,0.7
				s0.2,0.4,0.4,0.2c0.2-0.1,0.4-0.5,0.4-0.7C39.9,34,39.7,33.9,39.4,34z"/>
			
				<pattern  id="SVGID_00000015331631890099658880000014370701529637091488_" xlink:href="#SVGID_24_2" patternTransform="matrix(-4.873000e-02 0 0 -4.873000e-02 -16858.2695 4.9681)">
			</pattern>
			<polygon style="fill:url(#SVGID_00000015331631890099658880000014370701529637091488_);" points="31.2,38.6 34.4,36.7 34.4,37.9 
				31.2,39.8 			"/>
		</g>
		<g>
			
				<pattern  id="SVGID_00000013915107462283064140000001691178462252082108_" xlink:href="#SVGID_25_2" patternTransform="matrix(-4.873000e-02 0 0 -4.873000e-02 -16855.7754 22.3558)">
			</pattern>
			<path style="fill:url(#SVGID_00000013915107462283064140000001691178462252082108_);" d="M42.2,35.8c-0.2,0.1-0.4,0.5-0.4,0.7
				s0.2,0.4,0.4,0.2c0.2-0.1,0.4-0.5,0.4-0.7C42.6,35.8,42.4,35.7,42.2,35.8z"/>
			
				<pattern  id="SVGID_00000164511294338295383510000016854365631459239861_" xlink:href="#SVGID_26_2" patternTransform="matrix(-4.873000e-02 0 0 -4.873000e-02 -16855.7754 22.3558)">
			</pattern>
			<path style="fill:url(#SVGID_00000164511294338295383510000016854365631459239861_);" d="M40.8,36.6c-0.2,0.1-0.4,0.5-0.4,0.7
				s0.2,0.4,0.4,0.2c0.2-0.1,0.4-0.5,0.4-0.7C41.2,36.6,41,36.5,40.8,36.6z"/>
			
				<pattern  id="SVGID_00000008861997895279697940000002624425735589388190_" xlink:href="#SVGID_27_2" patternTransform="matrix(-4.873000e-02 0 0 -4.873000e-02 -16855.7754 22.3558)">
			</pattern>
			<path style="fill:url(#SVGID_00000008861997895279697940000002624425735589388190_);" d="M39.4,37.4c-0.2,0.1-0.4,0.5-0.4,0.7
				s0.2,0.4,0.4,0.2c0.2-0.1,0.4-0.5,0.4-0.7C39.9,37.4,39.7,37.3,39.4,37.4z"/>
			
				<pattern  id="SVGID_00000106869748823869122250000006399022836577536922_" xlink:href="#SVGID_28_2" patternTransform="matrix(-4.873000e-02 0 0 -4.873000e-02 -16858.2695 1.5433)">
			</pattern>
			<polygon style="fill:url(#SVGID_00000106869748823869122250000006399022836577536922_);" points="31.2,42 34.4,40.1 34.4,41.4 
				31.2,43.2 			"/>
		</g>
	</g>
	<g>
		<g>
			<g>
				<path class="st1" d="M26.2,36.1c-0.4-1.3-0.2-3.1-1-6c-0.5-1.9-2.4-2.2-2.4-2.2c1.6,1.2,0.3,2.3,0.3,2.3
					c-1.1,0.4-1.1-0.1-1.3-4.2c-0.2-4.1-2.7-3.1-2.7-3.1c1.2,0.9,0.2,2.5,0.2,2.5c-1,1.4-0.9,2.2-0.9,2.2c-2.5-2-0.8-4.2-0.8-4.2
					c-2.5,0.5-1.7,4.2-1.7,4.2c-2.1-1.1-1.4-2.6-1.8-5.1c-0.4-2.4-1.8-2-1.8-2c1,1.4-0.6,1.9-0.6,1.9c-0.2-0.6-0.5-1.1-1.2-1.8
					c-0.7-0.7-0.6-2.1-0.6-2.1c-0.5,0.6-0.9,2-0.5,2.7C9.9,21.8,10,23,10,23c0,2.2-1.7,1.5-1.7,1.5C6.8,23,7.6,21,7.6,21
					c-1.9,0.9-1.2,3.9-1.2,3.9c-1.3,1.1-1,2.1-0.9,2.4l19.1,11.1C26.4,38.4,26.2,36.1,26.2,36.1z"/>
				<g>
					<g>
						<polygon class="st35" points="24.2,37.3 24.2,49 5.3,38.1 5.3,26.4 						"/>
						<g class="st36">
							<g>
								<polygon class="st5" points="6.8,37.4 6.8,39 5.3,38.1 5.3,36.6 								"/>
							</g>
							<g>
								<polygon class="st5" points="6.8,33.3 6.8,34.9 5.3,34 5.3,32.5 								"/>
							</g>
							<g>
								<polygon class="st5" points="8.7,36.5 8.7,38 5.3,36.1 5.3,34.5 								"/>
							</g>
							<g>
								<polygon class="st5" points="10.7,39.6 10.6,41.2 7.2,39.2 7.2,37.6 								"/>
							</g>
							<g>
								<polygon class="st5" points="6.8,29.2 6.8,30.8 5.3,29.9 5.3,28.4 								"/>
							</g>
							<g>
								<polygon class="st5" points="8.7,32.4 8.7,34 5.3,32 5.3,30.4 								"/>
							</g>
							<g>
								<polygon class="st5" points="7.2,35.1 7.2,33.6 10.7,35.6 10.7,37.1 								"/>
							</g>
							<g>
								<polygon class="st5" points="12.6,38.7 12.6,40.3 9.1,38.3 9.1,36.7 								"/>
							</g>
							<g>
								<polygon class="st5" points="14.5,41.9 14.5,43.4 11.1,41.4 11.1,39.9 								"/>
							</g>
							<polygon class="st35" points="7.4,25.2 26.2,36.1 24.2,37.3 5.3,26.4 							"/>
							<g>
								<polygon class="st37" points="5.3,26.4 7.4,25.2 10.8,27.1 8.7,28.3 								"/>
							</g>
							<g>
								<polygon class="st5" points="8.7,28.3 8.7,29.9 5.3,27.9 5.3,26.4 								"/>
							</g>
							<g>
								<polygon class="st5" points="10.7,31.5 10.7,33 7.2,31 7.2,29.5 								"/>
							</g>
							<g>
								<polygon class="st5" points="9.2,34.2 9.2,32.7 12.6,34.6 12.6,36.2 								"/>
							</g>
							<g>
								<polygon class="st5" points="14.6,33.7 14.6,35.3 11.1,33.3 11.1,31.7 								"/>
							</g>
							<g>
								<polygon class="st5" points="16.5,36.9 16.5,38.4 13,36.4 13,34.9 								"/>
							</g>
							<g>
								<polygon class="st5" points="20.4,44.8 16.9,42.8 16.9,41.2 20.4,43.2 								"/>
							</g>
							<g>
								<polygon class="st5" points="18.4,36 18.4,37.5 15,35.5 15,34 								"/>
							</g>
							<g>
								<polygon class="st5" points="16.9,38.7 16.9,37.1 20.4,39.1 20.4,40.7 								"/>
							</g>
							<g>
								<polygon class="st5" points="22.3,42.3 22.3,43.8 18.9,41.8 18.9,40.3 								"/>
							</g>
							<g>
								<polygon class="st5" points="22.3,38.2 22.3,39.8 18.9,37.8 18.9,36.2 								"/>
							</g>
							<g>
								<polygon class="st5" points="11.1,35.8 14.5,37.8 14.5,39.4 11.1,37.4 								"/>
							</g>
							<g>
								<polygon class="st5" points="16.5,42.5 13,40.5 13,39 16.5,41 								"/>
							</g>
							<g>
								<polygon class="st5" points="18.4,44.1 18.4,45.7 15,43.7 15,42.1 								"/>
							</g>
							<g>
								<polygon class="st5" points="12.6,30.6 12.6,32.1 9.2,30.1 9.2,28.6 								"/>
							</g>
							<g>
								<polygon class="st37" points="9.2,28.6 11.2,27.4 14.7,29.4 12.6,30.6 								"/>
							</g>
							<g>
								<polygon class="st5" points="18.4,40 18.4,41.6 15,39.6 15,38.1 								"/>
							</g>
							<g>
								<polygon class="st5" points="22.3,46.4 22.3,47.9 18.8,45.9 18.8,44.4 								"/>
							</g>
							<g>
								<polygon class="st5" points="24.2,47.5 24.2,49 22.7,48.2 22.7,46.6 								"/>
							</g>
							<g>
								<polygon class="st5" points="16.5,32.8 16.5,34.4 13,32.4 13.1,30.8 								"/>
							</g>
							<g>
								<polygon class="st37" points="13.1,30.8 15.1,29.6 18.5,31.6 16.5,32.8 								"/>
							</g>
							<g>
								<polygon class="st5" points="24.2,45.4 24.2,47 20.8,45 20.8,43.5 								"/>
							</g>
							<g>
								<polygon class="st5" points="24.2,43.4 24.2,44.9 22.7,44.1 22.7,42.5 								"/>
							</g>
							<g>
								<polygon class="st37" points="16.9,33.1 19,31.9 22.4,33.9 20.4,35.1 								"/>
							</g>
							<g>
								<polygon class="st5" points="20.4,35.1 20.4,36.6 16.9,34.6 16.9,33.1 								"/>
							</g>
							<g>
								<polygon class="st5" points="24.2,41.3 24.2,42.9 20.8,40.9 20.8,39.4 								"/>
							</g>
							<g>
								<polygon class="st5" points="24.2,39.3 24.2,40.8 22.7,40 22.8,38.5 								"/>
							</g>
							<g>
								<polygon class="st37" points="20.8,35.3 22.8,34.1 26.2,36.1 24.2,37.3 								"/>
							</g>
							<g>
								<polygon class="st5" points="24.2,37.3 24.2,38.8 20.8,36.8 20.8,35.3 								"/>
							</g>
							<polygon class="st35" points="26.2,36.1 26.2,47.8 24.2,49 24.2,37.3 							"/>
						</g>
					</g>
					<g>
						<g>
							<polygon class="st38" points="24.2,47.5 26.2,46.3 26.2,47.8 24.2,49 							"/>
						</g>
						<g>
							<polygon class="st38" points="24.2,45.4 26.2,44.2 26.2,45.8 24.2,47 							"/>
						</g>
						<g>
							<polygon class="st38" points="24.2,43.4 26.2,42.2 26.2,43.7 24.2,44.9 							"/>
						</g>
						<g>
							<polygon class="st38" points="24.2,41.3 26.2,40.2 26.2,41.7 24.2,42.9 							"/>
						</g>
						<g>
							<polygon class="st38" points="24.2,39.3 26.2,38.1 26.2,39.7 24.2,40.8 							"/>
						</g>
						<g>
							<polygon class="st38" points="24.2,37.3 26.2,36.1 26.2,37.6 24.2,38.8 							"/>
						</g>
					</g>
				</g>
				<path class="st1" d="M24.2,37.3l2-1.2c0,0-1.2-6.2-2.9-7.6c0,0,0,2.2-0.6,3.4C22.1,33.1,24.2,37.3,24.2,37.3z"/>
				<path class="st35" d="M5.3,26.4c0-0.3-0.1-0.8,0.7-1.4c0.2-0.2,0.3-0.4,0.2-0.7c0,0-0.2-0.5,0.1-1.1c0.2,0.4,0.3,1,0.7,1.3
					c0.1,0.1,0.1,0.1,0.2,0.1c0.1,0,0.4,0.1,0.8,0.1c0.4,0,1.8-0.2,1.8-2.3c0,0,0,0,0-0.1c0-0.1-0.3-0.8-0.5-1.5
					c0.3,0.4,0.7,0.8,0.8,1.1c0.1,0.3,0.4,0.5,0.7,0.5c0.1,0,0.1,0,0.2,0c0.1,0,1.2-0.5,1.5-1.3c0.1,0.2,0.1,0.4,0.2,0.6
					c0.1,0.6-0.1,1.3-0.1,1.8c0.1,1.5,0.1,2.9,2.1,3.9c0.1,0.1,0.2,0.1,0.3,0.1c0.2,0,0.3-0.1,0.4-0.1c0.2-0.2,0.3-0.4,0.3-0.7
					c0-0.2,0.1-0.8,0.1-1.3c0.2,0.6,0.5,1.5,1.3,2.1c0.1,0.1,0.3,0.2,0.5,0.2c0.1,0,0.2,0,0.4-0.1c0.3-0.2,0.4-0.4,0.3-0.7
					c0-0.1,0-0.7,0.7-1.7c0,0,0,0,0,0c0.3-0.5,0.6-1.3,0.5-2c0,0,0.1,0.1,0.1,0.1c0.2,0.3,0.6,0.9,0.6,2.2c0.1,1.8,0.1,2.8,0.3,3.5
					c0.1,0.4,0.3,1.5,1.3,1.5c0,0,0,0,0,0c0.2,0,0.4-0.1,0.7-0.2c0.1,0,0.1-0.1,0.2-0.1c0.1-0.1,0.8-0.8,0.8-1.6
					c0,0.1,0.1,0.3,0.1,0.5c0.5,1.5,0.3,2.3,0.1,3.1c-0.2,0.6-0.3,1.2-0.1,1.9l0,0.1c0.1,0.5,0.4,1.2,0.5,1.9c0.2,1,0.2,1.3,0.2,1.4
					C24.2,37.3,5.3,26.4,5.3,26.4z"/>
			</g>
		</g>
	</g>
</g>
</svg>
